<mxfile host="Electron" agent="Mozilla/5.0 (Windows NT 10.0; Win64; x64) AppleWebKit/537.36 (KHTML, like Gecko) draw.io/28.1.2 Chrome/138.0.7204.243 Electron/37.4.0 Safari/537.36" version="28.1.2">
  <diagram name="Page-1" id="NSqk6Hbp0bpVGS8oRknz">
    <mxGraphModel dx="1892" dy="773" grid="1" gridSize="10" guides="1" tooltips="1" connect="1" arrows="1" fold="1" page="1" pageScale="1" pageWidth="850" pageHeight="1100" math="0" shadow="0">
      <root>
        <mxCell id="0" />
        <mxCell id="1" parent="0" />
        <mxCell id="1Q1gGnk6jao1O6jYRN7I-1" value="" style="shape=image;verticalLabelPosition=bottom;labelBackgroundColor=default;verticalAlign=top;aspect=fixed;imageAspect=0;editableCssRules=.*;image=data:image/svg+xml,PHN2ZyB4bWxuczp4bGluaz0iaHR0cDovL3d3dy53My5vcmcvMTk5OS94bGluayIgeG1sbnM9Imh0dHA6Ly93d3cudzMub3JnLzIwMDAvc3ZnIiBzdHlsZT0iY29sb3I6IHJnYigwLCAwLCAwKTsgZm9udC1zaXplOiBtZWRpdW07IGZvbnQtc3R5bGU6IG5vcm1hbDsgZm9udC12YXJpYW50LWxpZ2F0dXJlczogbm9ybWFsOyBmb250LXZhcmlhbnQtY2Fwczogbm9ybWFsOyBmb250LXdlaWdodDogNDAwOyBsZXR0ZXItc3BhY2luZzogbm9ybWFsOyBvcnBoYW5zOiAyOyB0ZXh0LWFsaWduOiBzdGFydDsgdGV4dC1pbmRlbnQ6IDBweDsgdGV4dC10cmFuc2Zvcm06IG5vbmU7IHdpZG93czogMjsgd29yZC1zcGFjaW5nOiAwcHg7IC13ZWJraXQtdGV4dC1zdHJva2Utd2lkdGg6IDBweDsgd2hpdGUtc3BhY2U6IG5vcm1hbDsgdGV4dC1kZWNvcmF0aW9uLXRoaWNrbmVzczogaW5pdGlhbDsgdGV4dC1kZWNvcmF0aW9uLXN0eWxlOiBpbml0aWFsOyB0ZXh0LWRlY29yYXRpb24tY29sb3I6IGluaXRpYWw7IiBvdmVyZmxvdz0iaGlkZGVuIiB4bWw6c3BhY2U9InByZXNlcnZlIiBoZWlnaHQ9IjMxNS4wMDEzNzMyOTEwMTU2IiB3aWR0aD0iMzk1LjAwMDMzNTY5MzM1OTQiIHZpZXdCb3g9IjAgMCAzOTUuMDAwMzM1NjkzMzU5NCAzMTUuMDAxMzczMjkxMDE1NiI+PGRlZnM+PGNsaXBQYXRoIGlkPSJjbGlwMCI+PHJlY3QgaGVpZ2h0PSIzMDAwMzc1IiB3aWR0aD0iMzc2MjM3NSIgeT0iMCIgeD0iMCIvPjwvY2xpcFBhdGg+PGltYWdlIGlkPSJpbWcxIiBwcmVzZXJ2ZUFzcGVjdFJhdGlvPSJub25lIiB4bGluazpocmVmPSJkYXRhOmltYWdlL2pwZWc7YmFzZTY0LC85ai80QUFRU2taSlJnQUJBUUVBWUFCZ0FBRC8yd0JEQUFNQ0FnTUNBZ01EQXdNRUF3TUVCUWdGQlFRRUJRb0hCd1lJREFvTURBc0tDd3NORGhJUURRNFJEZ3NMRUJZUUVSTVVGUlVWREE4WEdCWVVHQklVRlJULzJ3QkRBUU1FQkFVRUJRa0ZCUWtVRFFzTkZCUVVGQlFVRkJRVUZCUVVGQlFVRkJRVUZCUVVGQlFVRkJRVUZCUVVGQlFVRkJRVUZCUVVGQlFVRkJRVUZCUVVGQlQvd0FBUkNBRTlBWTREQVNJQUFoRUJBeEVCLzhRQUh3QUFBUVVCQVFFQkFRRUFBQUFBQUFBQUFBRUNBd1FGQmdjSUNRb0wvOFFBdFJBQUFnRURBd0lFQXdVRkJBUUFBQUY5QVFJREFBUVJCUkloTVVFR0UxRmhCeUp4RkRLQmthRUlJMEt4d1JWUzBmQWtNMkp5Z2drS0ZoY1lHUm9sSmljb0tTbzBOVFkzT0RrNlEwUkZSa2RJU1VwVFZGVldWMWhaV21Oa1pXWm5hR2xxYzNSMWRuZDRlWHFEaElXR2g0aUppcEtUbEpXV2w1aVptcUtqcEtXbXA2aXBxckt6dExXMnQ3aTV1c0xEeE1YR3g4akp5dExUMU5YVzE5aloydUhpNCtUbDV1Zm82ZXJ4OHZQMDlmYjMrUG42LzhRQUh3RUFBd0VCQVFFQkFRRUJBUUFBQUFBQUFBRUNBd1FGQmdjSUNRb0wvOFFBdFJFQUFnRUNCQVFEQkFjRkJBUUFBUUozQUFFQ0F4RUVCU0V4QmhKQlVRZGhjUk1pTW9FSUZFS1JvYkhCQ1NNelV2QVZZbkxSQ2hZa05PRWw4UmNZR1JvbUp5Z3BLalUyTnpnNU9rTkVSVVpIU0VsS1UxUlZWbGRZV1ZwalpHVm1aMmhwYW5OMGRYWjNlSGw2Z29PRWhZYUhpSW1La3BPVWxaYVhtSm1hb3FPa3BhYW5xS21xc3JPMHRiYTN1TG02d3NQRXhjYkh5TW5LMHRQVTFkYlgyTm5hNHVQazVlYm42T25xOHZQMDlmYjMrUG42LzlvQURBTUJBQUlSQXhFQVB3RDlVNktLS0FDaWlpZ0Fvb29vQUtLS0tBQ2lpaWdBb29vb0FLS0tLQUNpaWlnQW9vcjhWdjJockdHNS9hQStKalNSaDJIaU8rR2YrMnByMThzeTZlWjFuUmhLenRmVThuTXN3aGx0SDIwNDNWN2FIN1UwVitDcDBtMS81NGo4elRUcFZ0L3p5SDYxOVA4QTZuNG4vbjZ2eFBtUDlic1Avd0ErcGZnZnZaUlg0SUhTN2Y4QTU1RDh6VERwc0gvUE1mclMvd0JVY1IvejlYNGxmNjI0Zi9uMi93QUQ5OHFLL0FwdE9oLzU1MHcyTVEvNVoxSCtxZUkvNStyOFMvOEFXdkQvQVBQdC9nZnZ4Ulg0Q05ZeGYzS1liT01md1V2OVZLLy9BRDhYM01mK3RORC9BSjl2OEQ5L3FLL24rTnFuOTJtTmJyL2RxZjhBVmF2L0FNL0Y5ekwvQU5hS0gvUHQvZ2YwQ1VWL1B3MEkvdTAwd2owcVA5VjYzL1B4ZmN5djlacVAvUHQvZ2YwRTBWL1BrMGZ0VFNwcGY2czF2K2ZpKzVsZjZ5VWYrZmIvQUFQNkQ2Sy9udFlOVENXOWFuL1Z1dC96OFgzTXIvV0tsL3o3ZjNuOUN0RmZ6MGJuM0Ruak5mdXIrenIvQU1tKy9ESC9BTEZmUy84QTBraXJ4c3d5MldYOHZOSzl6MThCbU1jZHpjc2JXUFFxS0tLOGM5Y0tLS0tBQ2lpaWdBb29vb0FLS0tLQUNpaWlnQW9vb29BS0tLS0FDaWlpZ0Fvb29vQUtLS0tBQ2lpaWdBb29vb0FLS0tLQUNpaWlnQXI4WWZqNHVmajU4VGYreGt2di9ScHI5bnEvR1Q0OEx1K1BmeE4vN0dXKy93RFJwcjdiaExYSHYvQ3o0cml6L2NGL2lSd0pTbUZLc2JhYVZyOWljVDhmVWlzVXByUjFaSzEzZndMK0diZkZuNHJlSGZET0grelhWeXJYVEoxV0JmbWtQdDhvSXo2a1Z6MXBSbzA1Vlo3SlhmeU9pakdWYXBHbkRkdXkrWnd1cGVIZFMwZUcxbXZ0UHVyS0c3VHpMZVM0Z2FOWmx3RHVRa2ZNTUVjajFGWnpSKzFmcFIrMFpvV2kvSFQ0ZTZvbW5YMmc2MWRlQzlaaGVDSFI3Z3lTMjlnNVdPU0tYNVFVSjJPZHFrajkwcHp4eHlmeEsrQy93bThQUi9GZExYNGZ4UnY0SnQ5T3Y0WFRVN3JOMEovTUxSUGx6aGYzZU1qbjV1b3I1YWpua0trSSswcHRTZTZWdE5ZcGJ0Yjh5L0UrcHJaSk9uT1hzNmljVnMzZlhTVGV5ZTNLL3dBRDgvMmlxTm82L1JhMS9aVStFeS9GVHh4YUhUdk0reDZkWjNWaG9EUGRYQ3hpVlR2a0NST0pwQmtBWURjWk9lb3h6R3ZmQkg0UytEdEQrTGZpQ0R3cE5yc0dncmFYRnBZYW5KZVdadHBKUHZ3bFN5UHN5UWZteWNIRzdQTkN6ekR6ZkxHRW05T2krMWEzWHpCNUxpSUxtbE9OdGVyK3plL1R5UGlUV3ZCZXQrSDlMMHJVdFQwcTZzYkRWWWpOWTNFOFpWTGhBY0ZrUGNWaUdPdjBFMG40TGVBZkhkcjhJanE5ck5IRGRlR0xuVXJUUVgxYTRNVjFjNzQyUzFqTWtoOHRUdmI1VTJsc1o2MXlIaG40RitIZFMwSHg3cXMvd3M4enhoWTMxaGJMNEhHcFQvOEFFc3RwSVlXZTV5SDh4dDI5bitZa0xubmdHbEhOcVZuenhkMTZMN1hLdDM5NzI4NzZGU3ltcmRjc2xaK3IrenpQWmZjdC9LMnA4VE5IN1ZHMFZmb1A4VHZnVjhLL2hwYi9BQkoxY2VBb05TZzBPRFJHdExHWFVycFZWN21YeTVDWFdUSkJ5RCtIR00xUjF2OEFaaDhBYUg0NCtKSDlqK0UyOFZhaFphUnArbzZMNE9iVUpZOGlmSW5ZTUdFamlQYnVBM2Z4WTU0cktPY1VKTG01WlcrWDkzei9BTHkxZW0rcG84b3J3Zkx6Sy96L0FMM2wvZGVpMThqNENhTTFHMGZ0WDBUKzJSOE1mRDN3djhiZUVkUDhPYVAvQUdKQmUrRjdTL3VyYjdTOXdmdER5enE3RjJZNU9FVWZMZ2NjQ3ZBV2pyMUtGU09JcFJxd1dqUE5yUWxoNnJwVGVxS0xSK2xSdEg3VmVhR28yanEzQWhUS1Jqcjl6LzJkZitUZmZoai9BTml2cGY4QTZTUlYrSExSOEUxKzQzN092L0p2dnd4LzdGZlMvd0Qwa2lyNEhpWlc5bDh6N3ZodVYvYWZJOUNvb29yNFUrNENpaWlnQW9vb29BS0tLS0FDaWlpZ0Fvb29vQUtLS0tBQ2lpaWdBb29vb0FLS0tLQUNpaWlnQW9vb29BS0tLS0FDaWlpZ0Fvb29vQUsvR2o0NkxuNDlmRTcvQUxHVysvOEFScHI5bDYvR3o0NEx1K1BIeE8vN0dhKy85R212dU9EL0FQa1lQL0N6NGppNTJ5OWY0a2NLVnBoU3JCU21sYS9hT1UvR1ZJOW8rR2Y3SXZpajRwZURkTDhTMkd2ZUc5TXN0VHVuczdXSFZMdWFLYVNWV0kyZ0xDd0pPMGtBSG9LNVhWdmhEZStEL0EycDY5cU9zeDZacjJtNnMya3o2RHNmN1FwQUdYOHdmS1JrOWlRUjM3VjlNZnMzL3RLZkRuNGIvQjN3bG9QaUc2aGwxVzIxV2VXWkpMQ2FVMkNzMGhTNFVpTXFTTWdZVTdzTWFwMlA3UTNnWHczNFZNV3JlSVkvRzkrdmpRNjNNbHRwczBYMm0zSUh6aFpZMVFNcC9nSjZyeDYxOFE4Ym1heEZTTHBOd1V0UGQzVjMxczFhMXZ6V2g5c3NIbHNzUFRrcXFVM0hYM3RuWmRMcDN2ZmIwZXA4K2FUOEU5WWsrRC9pbngxUHFFK2tIU0x5SzBsMHVhM2RKSjkrMGg5eEl3UG43ZzlLNEs3MGpYNGZMTnhaNmtuMjNDcDVzVWc4L3dCQU1qNXV2djFyN1U4VmZ0SmVBbDhNK0tZcmp4cmRlUEpMdnhMYTZ2YVdGeHAwOElXMFdXTnpib1hVRENCU01OdEJQWTVKT2w4UXYycHZodHEwMm10WmEzSHFGcE5yZGxmTkZOYmFnMDJuckd5c3pnUzVqakFDbFNrQUlKUFE1Sm9wNWpqdWIzOE0zZDltckswZE5rOTc2djBDcGwyQjVmY3hDVmwzVHU3dlhkcmEyaTlUNFhuMHpXckRVTGMzd3ZOTWx1RzhwYmk5RWtReGtBNVlqT0JubjByMXJ4ZCt5NzRoOExlQlU4VlMrUFBDT3FhYnFBYzJrZW42blBMTHFUb2NOSENwaEFrY0hqR2UxWlg3VG54U2I0cWZGclhMK3kxeTYxbncwbHdUcFN6TktzVVVaUkEzbHhPQnN5VjU0R1NNbXU3MDM0dmVFYmY0YS9BZlNwTlcyMy9oaldyaTcxYUg3Tk1mczBUWEJkV3pzdytWNXdoWTEzMXFtTDlsUnF3alp2NGxhOWx5dDlyclZKZXJPQ2pUd250SzFLY3JwZkMyN1hmTWwzMTBiZm9qNTZsMEh4QkhjV2tENmZxYXpzV1cyamFHUU1TdlVJTVp5TWM0NllxS2ZTOWV0YmlJeVcycFF6M2plWEdYamtWcHlEamFPTXNlMksrd3ROL2FxOFBUZnRCZVByL1UvRTE4dmh2VTdPU3o4UDY0c0UwaWFRU2k1a2pnSTNvR0s4bFZ5V0FKSEpJM2JiOXFENGM2UHFudzBONzRtdXZGTStrNlhkNmJlYTVKcHN2bldseElZd2w0VmtYTDhLMlNwWjhNU2NuZzhrc2ZpNDJUd3pkMWZTL1p1M3c5SG8rdCtteDJRd09FbGRyRXBXZHRiZDByNzlWcW50YnJ1ZkxWdDhGZGN2dmczNGk4YzNlbzNWckpwZW8yK25QbzF4Qko1MHhrMkZHeVR4amVNRGFheTlHK0dlbzMvaFh4VHIybzZ6Tm9XcWFQSGIrUnB0N0JNTGkvRXNtd0xHUU9NRWQrQ2ZUa2o2eCtIUDdUbmdMNGJhUnIwZmlIeGRQOFRiNmJXYk80aXZMalRwMG1takVVYUdaUkxIamRDUWNCeUNkbkhZMXlEZkY3d1pvOXY4VlV1UGlJZkZrM2lMVk5IdnRQdTVMRzdTVm9vYjFaWlVjTkNvUW9nSkFIeWtZMjgvS09hT0t4cmM0dWs3WGpaMmV6Y2JyV1BUWFYyZjNhZEx3dURTaEpWVmV6dXJyZEtWbjhXNzAwVjE5K3Z5VnEvaDNYYk9FWE9wYWZxRUVLbnloTmRRU0tvOUZ5dyt2RlFQNFYxaGJmN1EyazN3ZzhveitiOW1mYjVZNnZuR052UFhwWDJqOFNmMm1QQ25qUnZqRFpTNi9QNGowblU3alI1UERtbFR3WFBsVGVWSWh1RmpWa0FoM0FISk8zZG51YTlWOGJheW1yZUdmamZxaTY1ckVlbnorRWxqaDhMNnJwVnhaSm81TUcwS3BsVUpsejJpeURqSkorV3BsbWxlbW8rMW84cmR1L1hsOHY3MXRkTHEyNVVjdG9WSEwyZGJtdGZ0MDV2UDhBdTMwMXM3N0g1aHRIVWJSMWVhT28yanI2UndQblZNb1NSalkzMHI5dmYyZGYrVGZmaGovMksrbC8ra2tWZmlYTkgrN2Y2R3YyMC9aMS93Q1RmZmhqL3dCaXZwZi9BS1NSVitjOFZxenBmTS9RK0ZwWFZYNUhvVkZGRmZuNTk4RkZGRkFCUlJSUUFVVVVVQUZGRkZBQlJSUlFBVVVVVUFGRkZGQUJSUlJRQVVVVVVBRkZGRkFCUlJSUUFVVVVVQUZGRkZBQlJSUlFBVitOL3dBYlYzZkhiNG5mOWpOZmYralRYN0lWK1RQeG8rRlBqK2Y0MS9FUzZ0UGg1NHUxQ3p1L0VGNWNXOTFaNkhjeXd5eHRJZHJLNFREQWprRWNWOW53cGlLT0d4em5Xa29xejFaOGJ4Vmg2dUp3S2hSaTVPNjBSNUh0cHBXdXQvNFZOOFJ2K2lZZU9QOEF3bmJyL3dDSXB2OEF3cVg0ai84QVJNUEcvd0Q0VHQxLzhSWDY3L2EyWC84QVArUDNuNUgvQUdUbUgvUGlYM0hKRktZVnJyLytGUi9FZi9vbUhqZi9BTUoyNi84QWlLYi9BTUtqK0pIL0FFVER4djhBK0U5ZGYvRVZIOXJaZi96K2o5NWF5bk1QK2ZNdnVPUUswM2JYWUg0US9Fai9BS0poNDMvOEo2Ni8rSXB2L0NuL0FJay85RXc4Yi84QWhQWFgvd0FSVS8ydGwvOEF6K2o5NWF5ck1QOEFuekw3amp5dE5LVjJQL0NuL2lUL0FORXc4YmYrRTlkZi9FVTF2Zzc4U2V2L0FBckh4c1ArNWV1di9pS24rMWNCL3dBL28vZVYvWldQL3dDZk12dU9OSzAwclhaLzhLZCtKWC9STVBHMy9oUFhYL3hGTlB3YStKWC9BRVREeHQvNFQxMS84UlVmMnBnUCtmMGZ2TC9zdkgvOCtaZmNjWVZwcFN1MFB3WitKZjhBMFREeHQvNFQxMS84UlNmOEtZK0pmL1JNZkczL0FJVDExLzhBRVZIOXFZRC9BSi9SKzhwWlhqLytmTXZ1T0pLMTAyc2ZGRHhqcjJnUjZIcVhpbldML1Jvd29UVDdtK2tlQlF2M2NJV3h4VjcvQUlVdjhTLytpWStOdi9DZXV2OEE0aWsvNFVyOFMvOEFvbVBqWC93bnJyLzRpc3BaaGwwMm5LckYyOURhT1g1aEZOUnBTVi9VNGRvNmphT3U2UHdUK0puL0FFVEh4dC80VDExLzhSVGYrRkpmRTMvb21Qalgvd0FKNjYvK0lvZVpZSC9uOUg3eHJMY2Qvd0ErWmZjY0JjUi91WlA5MC95cjlxLzJkZjhBazMzNFkvOEFZcjZYL3dDa2tWZmtmTjhEdmlkSkU2ajRZK05NbFNCL3hUMTEvd0RHNi9YajRENmRkNlA4RHZoM1lYOXJOWlgxcjRjMDZDNHRiaU14eXd5TGJScXlPcEdWWUVFRUhrRVYrZmNVWWloaUhTOWpOU3RmWSsvNFh3OWJEcXI3YURqZTI1M1ZGRkZmQkgzWVVVVVVBRkZGRkFCUlJSUUFVVVVVQUZGRkZBQlJSUlFBVVVVVUFGRkZGQUJSUlJRQVVVVVVBRkZGRkFCUlJSUUFVVVVVQUZGRkZBQlJSUlFBVVVVVUFGRkZGQUJSUlJRQVZsZUttSytHZFZJT0NMV1RCLzRDYTFheVBGMy9BQ0srcmY4QVh0Si82Q2EwcC9ISDFJcWZBelFzZitQRzMvNjVyL0lWUFVObnhad2Y5YzEvbFUxUTl5bHNGRkZGSVlVVVVVQUZGRkZBQlJSUlFBVVVVVUFGRkZGQUJSUlJRQVVVVVVBRkZGRkFCUlJSUUFVVVVVQUZGRkZBQlJSUlFBVVVVVUFGRkZGQUJSUlJRQVVVVVVBRkZGRkFCUlJSUUFVVVVVQUZGRkZBQlJSUlFBVVVVVUFGWS9qQTQ4TGFyLzE3di9LdGlzYnhsL3lLdXFmOWNHL2xXbFA0NCtwblUrQ1hvYWxyeGF3ai9ZWCtWUzFIYi82aVAvZEg4cWtxSHVXdGdvb29wRENpaWlnQW9vb29BS0tLS0FDaWlpZ0Fvb29vQUtLS0tBQ2lpaWdBb29vb0FLS0tLQUNpaWlnQW9vb29BS0tLS0FDaWlpZ0Fvb29vQUtLS0tBQ2lpaWdBb29vb0FLS0tLQUNpaWlnQW9vb29BS0tLS0FDaWlpZ0Fyai9pQjR0MFRUOUYxT3d1dFdzcmU5OGovajNsblZYNTZmS1RtdXdyNTUvYXkrSDdhaHBWbjRvczR0MDFvUmIzVzBjbU5qOGpmZ3h4L3dBQ3IwTUJTcDFzUkduVWRyL21jR09xem80ZVU2YXZiOGozTFJQRVdsYTVHUnB1cFdtb0dOVjNpMW5XVGJucG5CNHJVcnpYNEIvRDMvaEFmQWRzTGhBdXFYNEZ6Y25ISzVIeXArQXgrSk5lbFZ6NGlFS2RXVUtidWwxTjhQS2RTbEdkUldiNkJSUlJYT2RBVVVVVUFGRkZGQUJSUlJRQVVVVVVBRkZGRkFCUlJSUUFVVVVVQUZGRkZBQlJSUlFBVVVVVUFGRkZGQUJSUlJRQVVVVVVBRkZGRkFCUlJSUUFVVVVVQUZlS2Z0a2VPdGUrRzM3UGZpTHhCNFoxRjlKMW0ybXMwaHU0MFIyUVBjeEkzRGdqbFdJNUhldmE2K2R2K0NnSC9KcS9pci9yNHNQL0FFc2hycHcwVkt2Q0wyYlg1blBpSk9OR2NsdWsvd0FqNEwvNGJFK052L1JSTDcvd0R0Zi9BSTFTZjhOamZHNy9BS0tIZmY4QWdIYS8vR3E4azJVM3k2L2N2N0V5L3dENThvL0Qvd0MyOHcvNS9NOWNQN1kzeHUvNktIZS8rQWRyL3dER3FhZjJ5UGpmL3dCRkR2Zi9BQUR0Zi9qVmVTRktic3FmN0V5Ly9ueWlsbldZZjgvbWV0LzhObGZHL3dENktIZS8rQVZyL3dER3FUL2hzejQzL3dEUlE3My9BTUE3WC80MVhrWlNtR09wZVM0RC9ueWkvd0Myc2Y4QTgvbWV2SDlzMzQzL0FQUlFyMy93RHRmL0FJMVRUKzJoOGNQK2loWG4vZ0hhL3dEeHF2SVRIVERIN1ZIOWk0RC9BSjhvdFoxanYrZnpQWC8rRzB2amgvMFVLOC84QTdYL0FPTlVuL0RhWHh3LzZLRmVmK0Fkci84QUdxOGZNZE1hS28vc2JBLzgrVVdzNHgzL0FEOVo3Q2YyMVBqai93QkZCdlAvQUFEdGYvalZRM1g3Wm54cnZMZDRMang1Y3pRdU1OSEpZMnBVajNIbFY1Q1l6VERIN1ZIOWo0RmFxa2l2N1h4cjNxczlrLzRiWCtPSTZmRUc3LzhBQU8xLytOVTAvdHMvSEwvb29GMy9BT0Fkci84QUdxOGJNZE1NZFIvWStDLzU5STBXYjQzL0FKK3M5bS80YmMrT1gvUlFMei93RHRmL0FJMVRmK0czdmpsLzBVQzcvd0RBTzEvK05WNHlZL2FtR09vL3NqQmY4K2tXczJ4bi9QMW50SC9EYjN4eS93Q2lnWGYvQUlCMnYveHFtbjl1RDQ1LzlEL2Qvd0RnSGEvL0FCcXZGakRUREdhbit5Y0gvd0Era1dzMnhuL1AxbnRYL0RjWHh6LzZIKzcvQVBBTzEvOEFqVkovdzNKOGMvOEFvZjdyL3dBQTdYLzQxWGlqUisxTU1ZcUhsV0QvQU9mU0xXYVl6L242ejIwL3R6ZkhUL29mcnIvd0R0Zi9BSTFUZitHNlBqcC8wUDExL3dDQWRyLzhhcnhFeDAxby9hby9zdkIvOCtrV3MweGYvUHhudDMvRGRQeDAvd0NoK3V2L0FBRHRmL2pWSWYyNnZqci9BTkQ5ZGY4QWdIYmYvR3E4UE1kTk1WUi9aZUUvNTlJdFpuaS8rZmpQdHI5alg5ckQ0ci9FejlvN3dsNGI4VGVMN2pWTkZ2UHRmMmkwZTJnUVNiTE9lUmVWakJHR1JUd2UxZnB4WDQ0ZjhFLzEyL3RjZUJQKzMvOEE5SUxtdjJQcjgvenFqQ2hpK1Ntckt5UHZNbnJUcjRYbnFPN3V3b29vcndqM0Fvb29vQUtLS0tBQ2lpaWdBb29vb0FLS0tLQUNpaWlnQW9vb29BS0tLS0FDaWlpZ0Fvb29vQUsrZHYyL3YrVFdmRlAvQUY4V0gvcFpEWDBUWHp2KzM3L3lhMTRwL3dDdm5ULy9BRXRocnJ3bis4VS9WZm1jdUsvM2VwNlA4ajh0TnROMjFZMjAwclg5SmNwL04vTVFiYVRiVSt5dWk4Sy9EUHhYNDZodUpmRHZodlZOY2l0emlWOVB0SG1DRTg0SlVIRll6Y2FhNXB1eTh6V0VaVkh5d1YzNUhLRksxL0J2aEcvOGRlTE5JOFBhWWdrdjlUdW83V0VObmFHWmdOellCd282azQ0QU5RM1dpMzlqSEpKY1dWeEJISElZWGVTSmxWWkIxVWtqcVBTdEh3UDQ0MXY0YitKTFhYL0QxMGxqcTlxRzhtNWEzaW5NZTRGU1FzaXN1Y0VqT004MW5VVTNUbDdLM05iVHRmcGMxcHVNYWtmYTM1YjY5N2VSOWwvdFpmcy9hQlkvQlc1dlBEbmhLSFFyendiZHhXMHQvRllwQStxV3pReEI1MlpWSG1Za2JHVG5CVnZXdUIvYVArRitpU2Z0T2ZEWHd6b3VoV0dtMkdxV1dtaTV0TlB0VWdqazN6dUpIWlVBQk93SEo2NEZlRjZiOGJQRytrLzhKTDVHdnpNdmlPSjRkVWp1SW81MHVGY2tzTnJxUXYzbTVVQWpQR0s2bTYvYTYrTE43OWlNL2lpS1Y3SjBlM2R0SnN0MFpUN3Z6ZVRrNDk2K1VvNWJtR0g1VXBxVnViZHRmRWw1UFpwdjU5RDZtdG1XWDRoeWJnNDM1ZGtuOExmbXQwMHZsMVBzelV2MmYvaGIvd0FMZ2c4ZERTZERpOE1XZ2JRN25RUlpSTGJOcVJsU0tNK1R0MkhLeUh0MVVIdlhLZkQvQU9GUGhMd3pEOGJYdk5EOEZodEs4Vkg3SmVlS05PaWUxczdaeEhKNVlKUTdGQ1BnQVlHY1Y4WXpmR254dk9sd2tuaUNka3VOYVh4REtwamp3OThweUpTTnZRRUQ1UHVjRDVlQlhXZkVMNGwvRisxOE4zQThVWDVpMGp4N0NtcHlIN0phQVg2S0ZSWlAzYWJvOEJGR0J0UEFPT2NuaS9zYkdSdFRuWFR2WmF0M3NtbnBwcnB6ZmdkMzlzWU9UZFNGQnExM29sYTdUV3V1bXZMK0pKOGFMYndEZi90T1c4WGdTR3hsOEx6YWhhSzhWb2dObzhqT3ZtaU5mdStXU2NZSHk5UUJpdnJIOXFqNE0rQmRLK0dYaWg1dkRQaFhRNUpMbXp0L0RrK2g2ZXRyZHBkc0FDazd4b0FVTzRuQnl1T2Z2QlNQenEwKzhuMG5VTGE5dFg4cTZ0cFZtaWt3RHRkU0Nwd2VEZ2dkYTlMMWI5cDc0bWE1RHJrT28rSTB2b05iVkV2NGJqVGJSNDVkaTdWSVV4WVFnWTVVQThBNXlCWG80cks4UktkQjBhbWxOYTNidTlWMlQ3UDh1dHp6OExtbUhqQ3VxMVBXbzlMSldXajgxM1g1OUQxZjRsL3NNMkhndndyZnZhZUttYnhGcDl0YjNEcnFEMjBkcmVGLzlaSENxeXRPckxuSTN4Z0hvQ2M1RHIvOWl6d2pwOS80czBGdkZtc1RlSlBEUGg1ZFp2UXRnaVdranRHWFZJM0xiaU9PY2p1TUVrRUR6SHh0OFd2akZlZkR2UzlQOFRYMnBKNFkxS0JZN082dXRQaWphOGlqQXdCYytXSkpCakdjdWM5ODFIYmZ0UWZGN1V0TEdnUWVKN3ErdDVyRTZhWVBzRnZOTExCdHdWWmpFWGM3Yy9NU1c2ODFoSEM1cEttdjM4WHEvd0JQN3ZrOVBQZlN4dkxGWllxalhzWkxSZnIvQUh2TmErVzJwMS83YTgwZWcvRnJ3QmVRMmRwTUxmd3JwbHg5bnVJUThNcFdTVTdaRTZNcHhnZzlSWHQzbTZkZGExK3pyRm8vZzN3WDRkMUh4akIvYU43cVZqNGJ0aExETEVzY2c4cmdiVkpKQkdjNFBCQkdhK0pmSC94QThTZkVqVkxTOThUMzUxQzlzYlNQVDRXTUVjSmpoakxiVXdpcURnczNKR2VlVFd4RDhlUEhkdmVlRHJxUFhkcy9nK0pvTkViN0hBZnNpTW9VakhsL1B3QjkvZDBwMU1xcXlvVXFhYXZGU1QzdHFuYnAzczlSVTgwcFJyMWFqVHRKeHR0ZlJxL1hUUzYwUG9uL0FJWkQ4SStNTlcwL1V0ZjhWYXBaNnY0cThTYWxwbHZEcDJud2lBU3d5ekhjUmtiRklpUFFIa2ozTmMydjdEZW42NVkrRi83QjhYVHpYTjlyOXhvR295WDFtc2NjYndpUXZKRW9ZbGgrN09BVGs1SFN2SkUvYVErSThjMmp5cDRqdytqNmhQcWxpZnNOdCs2dVppNWxrLzFmelo4eC9sYklHZUFNQ3FWMThmdmlGY2FYRHA1OFN6dzI4T3FQclVYMmFHS0dSTHgyTE5Lc2lJR0JKWThBNDU2Vm1zRm1VZHF5dC93LzkzdGI3alI0M0xaYjBuZi9BSWJ6NzMrODdyOW83OWwvUi9oQjRXdDliMFhYcDczYnFENmZkYWRxTXRvMXd1TjIyZFJCSzQySGJqRFlZWkdRT1JYem1ZeFh1V3JlSVBqRCswOXEybGFCZUdiWGJwbG11N1MxUzF0ZFBqbUFVRjVDVldOWkNBT0N4SkdUajd4ejR4SkNZMlpXQlZsT0NEMnIwY0hDckduN092TlNtdDdkdW5iOGp6OFpPbEtwN1NoQnhnOXI5K3Zjb3REVFdqcTRZNmFZelhZNEhJcGxJeCsxTU1kWFdqcGhqck53TkZNOTIvWUZYYisxdDREL0FPMy9BUDhBU0M0cjlpYS9IdjhBWUxUYisxdDRDK3QvL3dDa0Z4WDdDVitWY1JLMk9mb2o5UzRmZDhDdlZoUlJSWHpKOUlGRkZGQUJSUlJRQVVVVVVBRkZGRkFCUlJSUUFVVVVVQUZGRkZBQlJSUlFBVVVVVUFGRkZGQUJYenYrMzUveWEzNG8vd0N2blQvL0FFdGhyNklyNTQvYjgvNU5iOFVmOWZPbi93RHBiRFhYaFA4QWVLZitKZm1jdUwvM2VwNlA4ajh2eWxOMjFZMjAzYlg5TmNwL00vTVFiYSt4UDJSSTlWMUw0ZXc2RHErajZWZCtBcnJXWHZialVGMXNhZmY2ZklrWUFtd2pxN0x1UlFNSFBEWitXdmtIYlRTbGVYbUdDK3ZVZlpLVnZQWFR6Vm10ZTJwNmVYNDM2bFc5cTFmeTAxOG5kUFQ1SDNYWTZ4NFltK0VuaGp3N0FtajY3b1UveElpc2Z0RjhpelNUMnYyMVhNN2tuNW1kY296a1lLRWp2bXNmd3F2dzY4WGZ0RGVMOUJ2dkNQaFN4aDhQd1hjV2cyZHJaeEtsL05rY3loNUVqbVlBRXFyTXFqSjVIVWZGUlNrMjE0NnlMbFUrV3EwNVgrVGJXdSt2Yi9JOWg1N3pPSE5TVFViZk5KYmJhZC84ejdqazhDL0RlVDR0ZUlCWStGdEdnOFZSZUdHbTA3dzNxcjJZMDY0MUVGc041Y1Z6SkdtNWRuN3RtWEhMY1ozVnYyL2dMNGYydW9lRnBkVDhJK0Q0N2srRTlUdTlRc0xSWVpiYzNhUEFRTjRKeVFTNmdoaVJrZ0d2ejcyMG0yc3BaSFVsYi9hSG9yZGV6WDgyM1h2ZnFheHp5bkcvK3pyVjM2ZDAvd0NYZnAydDBQdlh3OW9QdzI4VWFqNEgrMitDUENWcWZGdmhhN3VOU050Q0lsdFpvbFVvWVYzWWlZNzJ5Y2JqaGVlT2Nyd3Y0ZDhEUTZkNEx2TDdRZkQrcCtSOE1idS9sdDd5R05rbHUwZTNLbCsrL2x4bjczek42MThPN2FUWlIvWWN2K2Y3dDgvNzNuMmFYeUJaNUhmMkt2OEFMKzc1ZDAzOHo3bThQK0NmaG40dThUZkQzeERlYUI0YXNkVzFqd2xjWGtlaHhoTGZUWjlTUm8vTFY0ODRIeXUveW5ydDV6am55MzlxN3dMWStGZmhmOE03dytGOUI4TmVJZFFrMUdUVTR0QktQRVg4eENGOHhXYklYY2NMdUlUSlZlQUs4UStIZmovVS9obDRsajFyUzRiSzZrQ05ETGE2amJMUEJQRzJOeU9wN0hBNUJCNDRJclQrS2Z4aTF2NHNIU1liKzEwM1NOTDBtRXdXR2s2TmJtQzB0d1RsaXFGbU9XT001UGFwcFpYaWFPTHB5VTcwMTNiL0FMMmxyK2ErN2RiRjFjencxYkNUaTRXcVBzbC9kMXZieWYzN1BjK3lmQXRqNFg4VGVGdjJmdFA4UVFhWHExaEZvV29OTlo2aDVja1ljUW9WM0szUTU2ZDZvL0NmVXZDaitMUGdyNHV0ZkRmaGZ3L3ErcVhldGFkZmYyYmJyQkhGRkVKUkZJRjNmSytJd041eVNIWWQrUGdmYlRkdnRXY3NoNWxKZTFldCtuZm44Lzd5L3dEQVVYSFB1Vnhmc2xwYnIyNVBMKzYvL0FtZmZYd24wZjRiK04vRCt1YS9KNFIwRFcvRWR6cjF3bXM2ZkhhV21MV0JHS3hyQXR6Y3dpSU9nRCtZaFlsM2ZPZHVGeVBoYjhKL0FHcGVGOU5Yd3Q0WjhPZUpwYm54WTl2cnYvQ1JYMFQzT25XU1hCOGtRbFpDcCtRSVNFTGlRc1ZiZXZBK0c5dGVxZkMvOW92eEI4SzlIaTAyMDBidzdyVU50Y2k4c1pOYTA3enBiR2JrNzRuVmxZSEp6OHhJQkhHTW5PT0l5ZkVRako0ZXEzZHF5YmE3NmI5T20yeTNOc1BuR0huS0NyMGtySjNhU2V1bXUzWHJ2djBQb1A0bTIvZ3I0Vy9EdjRnYXJZZUNQQ09vNnZCNDN1ZE90WWRSMDZPUVc5c1kwNFJBUVFvNXdPZ0pOZHA0SitHM3c3bXZ2RDBWbDRTOEU2aDREYnd2OW9pMXU4ZUY5UW0xRWh2TVIxWnl6WUFCd3lZVTlHendQZ0R4RHJtb2VLdGN2dFkxVzVhODFLK21hZTR1SEFCa2Rqa25BQUEvQ3MwcFdqeVdjcVNpNnpVdXIxN0pkMXQwOVhvUkhPb1JxdVhzVTQ5RnAzdjJlL1gwV3AraW5nM1hQRC9pYVA4QVovMGJXTkw4TzNObS9oMjlsbWFhQkM4RHh4SWlvQ1RoUTJkekFqbGxCN1Z5ZndmK0h2dzl2dmgvOFAydC9EWGczV3ZDbDdZM0wrTXRkMXE0alcvc0p3aTRWR1oxZVBCM1kyQThBSDVlcCtGaXROS1ZEeU5wTlFxdFgvemw1Nys5cDVwUFVwWjRtMDUwazdmNVI4dHZkMThtMW9mZGZnSFIvaGJwZWovQ1RUTGZ3cDRZOFEySGlQVXRVczdqVnRZdEVOMzlrU1J2SmRqOHUxeXV6NW1HUmdnWXlhK0pmaUpvdG5vUGoveE5wbW5mOGcreTFPNXRyZjV0Mzd0SldWT2UvQUhOWlpqcHBqcjBNTGw3dzA1VDUzSy9mMWIvQUNkdmtjR0p6QlltRVljaWpidDZKZHU2djh5a1k2WVk2dW1PbUdPdlFjRGdVejIzOWhKZHY3V3ZnRDYzL3dENlFYRmZyOVg1RGZzTXB0L2EwK0gvQU5kUS93RFRmY1Yrdk5ma0hFcXRtRDlFZnJ2RGJ2bDY5V0ZGRkZmS24xQVVVVVVBRkZGRkFCUlJSUUFVVVVVQUZGRkZBQlJSUlFBVVVVVUFGRkZGQUJSUlJRQVVVVVVBRmZPLzdmakJmMlcvRkJZNFVYT25ray85ZnNOZlJGVk5VMG14MXl5a3M5UnM3ZlVMU1RCZTN1b2xramJCeU1xd0lPQ0Fmd3JhalU5bFVqVTdOUDdqS3RUOXJUbFQ3cG8vRVQrMUxIL245dC8rL3EvNDAzKzFMSC9uOHQvKy9xLzQxKzBIL0NyZkJmOEEwS0dnL3dEZ3NnLytKby80VmI0TC93Q2hRMEgvQU1Ga0gveE5mcFgrdkZUL0FKOEw3ejgyL3dCU0tmOEF6L2YzSDR2SFU3SC9BSi9MZi92NnYrTk4vdEt5L3dDZnkzLzcrci9qWDdSLzhLdDhGLzhBUW9hRC93Q0N5RC80bWovaFZ2Z3Yvb1VOQi84QUJaQi84VFUvNjcxUCtmQys4ZjhBcVRUL0FPZjcrNC9GdiswN0wvbjh0LzhBdjZ2K05KL2FkbC96OTIvL0FIOVgvR3YybC80VmI0TC9BT2hRMEgvd1dRZi9BQk5IL0NyZkJmOEEwS0dnL3dEZ3NnLytKcGY2N1ZQK2ZLKzhmK3BOUC9uOC91UHhaL3RLeS81KzdmOEE3K0wvQUkwMDZqWmY4L2NIL2Z4ZjhhL2FqL2hWdmd2L0FLRkRRZjhBd1dRZi9FMGY4S3Q4Ri84QVFvYUQvd0NDeUQvNG1qL1hhcC96NVgzai93QlNxZjhBeitmM0g0cS8yaFovOC9jSC9meGY4YVQrMExQL0FKKzRQKy9pL3dDTmZ0WC9BTUt0OEYvOUNob1AvZ3NnL3dEaWFQOEFoVnZndi9vVU5CLzhGa0gvQU1UUy93QmRhbi9QbGZlUC9VdW4vd0Evbjl4K0taMUN6LzUrb2Y4QXY0ditOSi9hRnAvejlRZjkvQi9qWDdXLzhLdDhGLzhBUW9hRC93Q0N5RC80bWovaFZ2Z3Yvb1VOQi84QUJaQi84VFMvMTBxZjgrVjk0LzhBVXluL0FNL245eCtLQjFDMC93Q2ZxSC92NFA4QUdrKzNXbi9QMUQvMzhGZnN0ZWZESHdjdmpMU294NFQwTVJ0WTNiRmY3Tmh3U0pMZkJ4dDdaUDVtdHIvaFZ2Z3Yvb1VOQi84QUJaQi84VFRseGxVU1Q5aXRmTVVlRHFiYlh0bnA1SDRtL2JyVC9uNWgvd0MvZy94cFB0MXIvd0EvTVA4QTM4SCtOZnRuL3dBS3Q4Ri85Q2hvUC9nc2cvOEFpYVArRlcrQy93RG9VTkIvOEZrSC93QVRVZjY1MVA4QW55dnZMLzFOcC84QVA1L2NmaVY5dXRmK2ZtSC9BTCtDayszV3YvUHpELzM4RmZ0dC93QUt0OEYvOUNob1AvZ3NnLzhBaWFQK0ZXK0Mvd0RvVU5CLzhGa0gvd0FUUy8xeW4vejVYM2ovQU5UcWYvUDUvY2ZpUjlzdGYrZm1IL3ZzVTAzbHIvejhRLzhBZllyOXVmOEFoVnZndi9vVU5CLzhGa0gvQU1UUi93QUt0OEYvOUNob1AvZ3NnLzhBaWFYK3VVLytmSys4ZitwOFArZnorNC9FWDdYYmY4L0VYL2ZZcHYydTIvNStJdjhBdnNWKzNuL0NyZkJmL1FvYUQvNExJUDhBNG1qL0FJVmI0TC82RkRRZi9CWkIvd0RFMHY4QVhHZi9BRDVYM2ovMVBoL3orZjNINGcvYTdmOEE1N3hmOTlpa04xYmY4OTR2Kyt4WDdmOEEvQ3JmQmY4QTBLR2cvd0Rnc2cvK0pvLzRWYjRML3dDaFEwSC9BTUZrSC94TkwvWENmL1BsZmVQL0FGUWgvd0Evbjl4K1dIN0Rja2NuN1dudy93RExrVitkUXp0WUgvbHd1Sy9YZXNIVFBBUGhqUmI2TzkwN3c1cE5oZVJaMlhGcll4UnlKa0VIREtvSXlDUjlDYTNxK1B6UEhQTWNROFE0MnVrdnVQcjh0d0t5N0RxZ3BYMWY0aFJSUlhsSHFCUlJSUUFVVVVVQUZGRkZBQlJSUlFBVVVVVUFGRkZGQUJSUlJRQVVVVVVBRkZGRkFCUlJSUUFVVVVVQUZGRkZBQlJSUlFBVVVVVUFGRkZGQUJSUlJRQVVVVTF5d1Jpb0ROamdFNEJQMW9BeEx6L2tkdEkvNjhMei93QkdXMWJ0Zk5PdS90UlNhVjR5QXV2Q1VrVjFweTNGbEpBYjdrc3p4ODU4dnQ1WDQ3cStoZkQybzNPcjZIWTMxM1ovMmZjWEVTeXZhK1o1aGp5TWhTMkJrNHgycjBjVmc2MkhoQ1ZXTmsvTmQyK2pQUHcyTG80aWM0MG5kcnlmbDNOR2lpaXZPUFFDaWlpZ0Fvb29vQUtLS0tBQ2lpaWdBb29vb0FLS0tLQUNpaWlnQW9vb29BS0tLS0FDaWlpZ0Fvb29vQUtLS0tBQ2lpaWdBb29vb0FLS0tLQUNpaWlnQW9vb29BS0tLS0FDaWlpZ0Fvb29vQStTdkVIL0FBVWs4QWVIZkVHcWFUTjRZOFZUemFmZHpXY2trTUZzVVo0M0tNVnpPRGpLbnFLei93RGg1NzhQUCtoVDhYZitBOXIvQVBINitDZmlJbTc0aitNai93QlJ5LzhBL1NpU3VkYU92MVRDOExZT3ZRaFZsS1Y1SlBmdXZRL0xjVnhSaTZOZWRLTVkyaTJ2dWZxZm92OEE4UFB2aDMvMEtuaTcvd0FCN1gvNC9TZjhQUWZoeVA4QW1WZkYzL2dQYS84QXgrdnpsYVAycUpvYTNmQ2VEL21sOTYveU1WeFhqUDVZL2ovbWZvOS93OUQrSEgvUXErTGYvQWUxL3dEajlKL3c5RitHL3dEMEszaTMvd0FCN1gvNC9Yd25wSHdUOFcrSXZDK2w2L3BtbC9iYkRVOVQvc2kwRU15R1dXNjJsdGdUTzdvRHpqRlFlUHZnajQ1K0dObmJYbmlud3hmNkxhWE1oaWludVk4SXpnWjI1Qkl6Z0U0UFhCOURYSC9xN2wzTnlLcStidGRYT3ovV0hNZVhuZE5XNzJkajZZOFpmdG4vQUF0OFZmRlRTL0ZCOE4rSjQ3S1BhOTlibTJ0dDh6b1BrSS9mNDV3b09UMEZlcy84UFNQaHF2SC9BQWkvaXdEL0FLOTdYLzQvWDVxTkQrRlJORDdWMTF1SDZGYU1Zem5KcUtzdjZzY2xIaUN2U2xLVUlSVGs3djhBcTUrbC93RHc5TCtHbi9Rc2VMUC9BQUh0Zi9qOUovdzlOK0dmL1FzK0xQOEF3SHRmL2o5ZkF2aUQ0RCtQdkMvZytQeFZxdmhQVXRQOFBTTEd3djU0ZHFZY2dJVDNHU1FPUjNGY0MwUHRYbng0ZHdWUlhoTnYwYVBRbHhCallPMDRKZXFaK20vL0FBOVArR1gvQUVMUGl6L3dIdGYvQUkvU2Y4UFVmaGovQU5DMTRzLzhCN1gvQU9QMStZalExRTBQdFErRzhMM1kxeEZpWDBSK24vOEF3OVMrR0hUL0FJUnJ4Wi80RDIzL0FNZnI2NThJK0pMZnhsNFQwWHhCWnh5dzJtcTJVRi9ESE9BSkZTV05YVU5na1pBWVp3VFg0QmVWaGdhL2RyNEQvd0RKRC9oNS93Qmk3cDMvQUtUUjE4eG0rWDBzQnllenZyM1BwY3B6Q3JqbEoxTGFIZFVVVVY4NGZRaFJSUlFBVVVVVUFGRkZGQUJSUlJRQVVVVVVBRkZGRkFCUlJSUUFVVVVVQUZGRkZBQlJSUlFBVVVVVUFGRkZGQUJSUlJRQVVVVVVBRkZGY2Q0VjBtKzFUd3ZvOTdONGgxUVRYRm5ETSswdzQzTWdKNnhrOVQzTmFSZ3BKdHV4bktUaTBrcm5ZMFZoZjhJM2RmOEFRdzZwL3dDUVAvalZIL0NOM2Y4QTBNT3FmbEIvOGJwOHNmNXZ6L3lGelMvbC9JM2FLd3YrRWN2UCtoaDFMOG9QL2pkSC9DTzNuL1F3NmwrVVAveHVqa2ovQURmbi9rSE5MK1g4ajhadmlBdWZpTDR4UC9VY3YvOEEwcGtyQVphNkx4dkVVOGZlTFZMdElWMXUrQmRzWmIvU0pPVGlzVmtyK2g4dWovc1ZIL0RIOGtmejNtTXY5dHJmNG4rWlVNZFJ0SFh1UGpEOWwzeERvK2tlQ3JyUVRjZUtydnhIcERhdTFuWldaRDJrYWlQSVB6SGNNeWdad1BweldkNFAvWmQrSVBpN3gwdmhHVFIzMERWbXNwTlFIOXNwSkVua29RcGJLb3g1WmxVY2RXSFNvK3ZZUndkVDJpc3IvZzdQVGZvWDlSeGNacW43TjNkdngxV3V4NnQ4QVA4QWhFZEsrSGZ3bzFTYzZMWitJby9pQXYycTlrOGxMdGJRUVNuNTNQemlMZHQ2bmJuRmEvanI0L2VDOWErSlY3OE5iclJZN1h3VGVlTTMxRFhOWGsxSDdWSGU0a3p1UUJWRWNiTUZKd3pmS01BMTg1US9BZjRnM2R2cVZ4QjRPMWlhRFRaWklidVJMVmlJblQ3Nm5qcU1jMVM4Ty9Cbnh2NHcwbE5UMFh3cnFtcDZlODNrTGMyMXN6STBtY2JRY2RjOFY0azh2d2xTckt2VXJYMzYyczI3cnJ1dWwvVTl1R1lZdW5TalFwMGJiZEwzU1ZuMDY5YmVoOWFlTlBEL0FNT1kvQnZqbC9FdWxmRDdUNDE4UjJDYWZMNFpXMisxZjJVYnVNRmg1ZktreGJ0MjNERWJ0dzZWUDhRdEI4QzJ2aEQ0c3pXMmtmRGUxamh0TGR2Q1Z4cFMyWnUyandwM2tnN2crN09TY04xNmpCcjVJaCtCZmorNjB1NjFLSHdqcXNsaGF0T3M5d3R1U2taaFlyS0dQYmF3SVAwTkt2N1B2eEdtMDFOUVh3VnJQMko3ZjdXczV0R0NtSEdkK2ZUQnJqL3M2akcxOFRzKy93RGgwMy91L2l6ci90R3RLOXNOdXUzK0xYYis5K0NQcFA0MjNtbmVNdmdyNG4xWDRreStHN1B4cGEyMW5hYU5xSGhiV3ZQT3FoQ1NxeTI2dVJnRjJPV1VFYmpqR0srR0docjZqdFAyTHRaOE9YeEhqUjcyT3l1TkNtMVcwbjhPMmN0NXRtVUFpR2JjaTdEenpnRWY3UXJ4eTErQ1hqdlVmQ24vQUFrMXI0UzFlZlFkbm1DL2p0V01SUUhHNEhISXozcm93SDFhakNVWVZVMWYwV3VsbGQrVzF6REhmV2EwNHluU2FkdlY2YTNkbDU3MlBPbWg5cWlhR3ZUclA0QS9FVFZQRDZhN1orRE5ZdXRJa3RqZUplUTJyTkcwSUJPOEVkUmdHdlBXaHIwNHVGUzZoSk8zWTgxODlPem1tcjl6TWtpd3BQdFg3bi9BZi9raC93QVBQK3hkMDcvMG1qcjhQSm84UnVjZGpYN1ZmQS9SOVRrK0N2dy9kTmRtaVJ2RCtubFl4YnhrS1BzMGZHY1Y4RHhQQmMxTzd0dWZlOE16ZkxVc3I3SHFkRllYOWk2dC93QkRCTi80RFIvNFVmMkxxLzhBME1Fdi9nTEgvaFh3dkpIK1pmai9BSkgyL05MK1YvaC9tYnRGWVg5aTZ2OEE5REJKL3dDQXNkUDhOM1YzTGNheGIzZHg5cWF6dTFoU1RZRUpVMjhMOUI3dTFISXJOcDN0Ni81RDU5VW1yWDlEYW9vb3JJMENpaWlnQW9vb29BS0tLS0FDaWlpZ0Fvb29vQUtLS0tBQ2lpaWdBb29vb0FLS0tLQUNpaWlnQW9vb29BS0tLS0FDc0x3SC93QWlQNGQvN0Ixdi93Q2lscmRyQzhCLzhpUDRkLzdCMXY4QStpbHJWZnczNnI5VEoveEY2UDhBUTNhS0tLeU5Rb29vb0EvRlR4d3VmaUI0dy83RHVvZitsTWxZalIxMVhqclI5U2grSUhpNFBwR3Brblc3NWdWc0ptQkJ1SkNDQ0Z3UVFhd3pwZW9mOUFqVmYvQmRQLzhBRVYvUTJYNDNDUndkR01xMFUxRmZhWGIxUDU3ekRCWXVXTXJTalJrMDVQN0w3K2g5UzZYKzF4NFYwM1QvQUF2R2xqcnNkenBQZzI2OFB2SkhERVA5S2tFQVNSRDV1ZGdNVGZOd3c0d1BUTzhFL3RWZUdmRHR4OEw1cit6MXU0azhNYUxxR21YN3h4Uk0wcnpCQkdZeVpSdVViZWQyMGpqQU5mTkowclVmK2dScXYvZ3VuLzhBaUthZEkxSS84d2ZWZi9CZFAvOEFFVjV6d2VUMmNmYXgxdjhBYlhWU1gvdHpQUldNemk2bDdLV2x2c1BweXZ0L2RSOVEvQy85cjd3NzRSK0czaDNSOVMwaTVUWC9BQStMZ1dsN0RwbHRkaVR6R0xidk1ra1ZvbU9jTVZEWjYrMWQvd0RCanhscC9qQzArRVY5cTFoZmFBMmlYVjYxck5wZDVacnByeHV4TEc0WHp2TWh3TWphVStjOEE4OGZEaDBmVS84QW9ENnAvd0NDK2Y4QStJcHAwWFZQK2dQcXYvZ3ZuLzhBaUs1c1JnY3JxS1RwVjR4Y20zZm1UM1RUdHF2NW4zT25ENDdOS2JpcXRDVWxGSlc1V3RuRnErai9BSlYyUGV2ak44ZnRLMWZ3ZmIrRmRJRjVKZWFaNHYxTFdKWnNMOWp1WXBMbVo0OXJCOXpjU2QxQTVOZHpxSDdZSGdQVUw3eGRyaldQaXVMV2ZFbmgxZEpsc2NRUFpXc3l4bFFZL3dCNkcyWkpPY0E5VHQ1cjVLT2lhcC8wQnRWLzhGODMvd0FSVEcwTFZmOEFvRGFyL3dDQytiLzRpdEpZWEtaUVVYVldsL3RMcTAzMTdwR2NjVm1zWnVTcFBXMzJYMFRTNmRtejZ3ai9BR3hmQjZhOWEzamFkcjdRUmVERzhQTXZrUTUrMGsvZng1MzNQZnI3VkJvdjdZdmcreHVQRG5paTUwcnhIL3dsZWkrSFRvS2FQYnZFTkltNS93QmFXTDcxSkhKR3c1d283WnI1VS9zSFZ2OEFvRGFwL3dDQytiLzRpbS84SS9xMy9RRjFYL3dYemY4QXhOWXZBNVJhM3RWLzRHdHUyL1c1c3NkbTk3K3lmL2dEMzAxMjhqNms4SS90aCtHTkIxbjRXM056WWE0dHI0WjBhOHNOUnRyV0dMWkpOTUUybUpUS0FVRzAvZTJrY2NWOGphdkpGZWFwZVR3b1k0Wlpua1JTQUNGTEVnWUh0V2tmRHVyL0FQUUYxWC93WHpmL0FCTk5QaHpXUCtnSnF2OEE0TDV2L2lhNjhPc3V3c25LbFZqci9lWGR2ODJ6bHJ2TWNWRlJxVXBhZjNYMlM3ZGtqbmJtSDl4SWY5ay95cjl0L2dQL0FNa1ArSG4vQUdMdW5mOEFwTkhYNHgzUGhmV1pJSkZYUTlWTEZTQi9vRTNwL3UxK3ovd09oa3QvZ3I4UDRwWTJpbGo4UGFlcnh1Q0dWaGJSZ2dnOURYeEhGVldsVmxTZEtTbHZzN24yM0MxS3JUalZWV0xqdHVySGIwVVVWOENmZUJXRjRkLzVDM2lmL3NJcC93Q2tsdlc3V0Y0ZC93Q1F0NG4vQU93aW4vcEpiMXJENFplbjZveWw4VWZYOUdidEZGRlpHb1VVVVVBRkZGRkFCUlJSUUFVVVVVQUZGRkZBQlJSUlFBVVVVVUFGRkZjeDhVUEdFbnc5K0cvaW54UkZiTGV5YU5wbHpxQzJ6dnNFcGlqWndwYkJ3RHR4bkZOSzdzaE4yVjJkUFJYNTVyL3dWRDhSTW9QL0FBcnpUY0VaL3dDUXJKLzhhby80ZWgrSXYraWQ2Yi80TlpQL0FJMVh1LzJIbU8vc1dlSi9ibVhmOC9rZm9aUlg1NWY4UFJ2RUkvNXAzcHYvQUlOWlAvalZKL3c5SDhRLzlFNzAzL3dheWY4QXhxbC9ZZVkvOCtXSDl0NWQvd0EvVWZvZFJYNTMvd0REMHJ4Qi93QkU3MDcvQU1Hc24veHFrLzRlbWErUCthZDZkLzROWlA4QTQxUy9zUE1QK2ZUSC9iV1gvd0RQMUg2STBWK2R2L0QwN1gvK2lkNmQvd0NEVi84QTQxVGYrSHFHdmY4QVJPOVAvd0RCcEovOGFwZjJMbUgvQUQ2WS93QzJzQi96OVI5ZC90R1d2aUczOEhycmZoM1ZyM1Q1ZFBiZGN4V3N6SUpJandXd0R5Vk9EOU0xeHY3TEgvQ1NhK2JyVk5UMWpVTGpSN0tNV2xyYXlUc1lpMkIvRG5HRlhBSDE5cStiNzMvZ3FOckdvV2MxcmNmRGZUcFlKa01jaUhWSHdWSXdSL3FxeS9DSC9CU2krOEQrSGJUUjlOK0c5Z2xyYnFjRnRVZmM3RTVaais2NmtrMTYwTUhqbzRLV0hkRDNtOTlOdXY4QVhtZVhQR1lLV01qaUZYOTIyMnUvOWZrZnBmUlg1ei84UFdOY0gvTk85UDhBL0JvLy93QWFwUDhBaDZ6cm4vUk9yRC93YVA4QS9HNjhqK3hzZi96Nlo2MzlzWUgvQUorSS9SbWl2emwvNGV1YTJQOEFtblZoL3dDRFIvOEE0M1NmOFBYdGEvNkoxWWYrRFIvL0FJM1Mvc2ZIZjgrMlArMThGL3o4UitqZEZmbkYvd0FQWU5hSC9OT3JIL3dhUC84QUc2VC9BSWV4YXovMFRxeC84R2ovQVB4dWwvWkdPLzU5c1A3V3dYL1B4SDZQVVYrY0gvRDJUV1AraWRXUC9nMGYvd0NOMEQvZ3JKckRNQi93cnF4ei93QmhOLzhBNDNVdktjWkZYZE1wWnBnNU95cUg2UDBVMk50OGF0MHlNMDZ2SlBWQ2lpaWdBb3I1bThaLzhGQlBocDRGOFhhMTRjMUN3OFNTMytrM2t0amNOYTJFYnhtU05pcmJUNW95TWowRlkzL0R5NzRVZjlBenhYLzRMWS8vQUk3WGJIQlltU1VvMDIxNkhITEdZYUw1WlZFbjZuMWxSWHliL3dBUE1QaFIvd0JBM3hWLzRMWS8vanRKL3dBUE1QaFAvd0JBM3hWLzRMWS8vanRQNmppditmYis0bjY5aGY4QW40dnZQck9pdmt6L0FJZVkvQ2YvQUtCM2lyL3dYUi8vQUI2ay93Q0htWHdtL3dDZ2Y0cC84RjBmL3dBZW8rbzRyL24yL3VIOWV3My9BRDhYM24xcFJYeVgvd0FQTS9oTC93QkEvd0FVL3dEZ3VqLytQVW4vQUE4MCtFdi9BRDRlS2Y4QXdYUmYvSHFQcU9LLzU5djdnK3U0Yi9uNHZ2UG8vd0NJL3dEYmtmZzNVcHZEbDE5azFlQ1B6b1c4cEpBKzNrcGhnUnlNL2ppdm5mNEsvRWI0Z2VPdkgzMkVhc0Z0SlpmdG1wU0MwaEh5cWlwL2M0SkNJdkgxOWFnLzRlYWZDVHZZZUtQL0FBWFJmL0hxNUR3UCszWDhEL0FlcGE3ZVdHbitLQTJxWFBubFRwMFg3cGNaMkQ5OTAzRmorSTlLOWJDd3FVY1BVcHpvWGs5bTQvMTZvOHJFenAxcTlPcEN2YUszWE4vWG96N2tvcjVKL3dDSG0vd2ovd0NmSHhSLzRMNHYvajFIL0R6ajRSZjgrWGlqL3dBRjhYL3g2dkkrcFluL0FKOXY3ajF2cm1HLzUrTDd6NjJvcjVJLzRlYy9DTC9uejhUL0FQZ3ZpLzhBajFIL0FBODYrRVAvQUQ1K0ovOEF3QWkvK1BVZlVzVC9BTSszOXdmWE1QOEE4L0Y5NTliMFY4ai9BUER6djRRZjgrbmliL3dBaS84QWoxSC9BQTg4K0VIL0FENmVKdjhBd0FpLytQVXZxZUovNTl2N2crdVlmL240dnZQcmlpdmtiL2g1NzhIL0FQbjE4VGYrQUVYL0FNZW8vd0NIbjN3ZjZmWmZFMmYrdkNML0FPUFVmVThRdnNQN2gvVzhQL092dlBybWlrVnR5Z2pvUm1scmpPc0tLS0tBQ2lpaWdBb29vb0FLODIvYVYvNU40K0puL1l0NmgvNlR2WHBOZWJmdEsvOEFKdkh4TS83RnZVUC9BRW5lcnAvR2lKL0N6OGFvay9jcC91aitWS1VxV0ZmM01mOEF1aitWS1ZyK2tZeDkxSDg0eWw3ekt4U21OSFZwa3BqSlJ5alVpbzBkUnRIWHVueE0vWlY4VC9ESDRXYUw0NDFDNnRiaXoxQXcrYlp3aGhOWithbTlQTXlQb09PNUZlZVdQd3A4WjZ0cDl2ZldQaERYcnl5dVVlU0M1dDlNbWtpbFZmdk1yQmNNQjNJNlZ3VThUaDYwUGFRbW1yMithTytlSHIwWit6bkJwMnY4bWNXMGRSdEg3VjJPa2ZERHhmNGlzYlc5MG53cnJlcDJkMUsxdmIzRm5wMDAwYzBnVXNVUmxVaG1DcXhJSE9GSjdVeHZoZjR3R2cvMjRmQ210alJmSzgvKzB2N09tK3plWG5HL3pOdTNibmpPY1VPZE85bkpmZUVZMUxYNVg5eHhyUjB4bzY2dnhKOFBQRS9oRzJzN2pYZkRlcmFMYjNtVGJTNmpZeTI2VDRBSjJGMUFiZ2pwbnFLc2FoOEkvSEdrNmZQZlh2ZzN4QloyTnZDdHhMYzNHbHpwRkhFMzNYWmltQXA3RThHczNPblpQbVd2bWFLTlRWY3IwOGppR2pxTm9xN2h2aEg0Myt4aTcvNFF6eEI5bE5zTDBULzJYUHMrem5wTnUyWTJmN1hUM3JlOGZmczEvRUg0ZWEvbzJqWC9BSWR2TDNVTll0aGMyY1dtMjh0d1pjZ2xveGhNbVJRdVdRY3FDQ2V0YzhxMUZOUjUxZCtmYmM2WTBxMW5Ma2RsNWQ5anlWbzZZMGRkcC93cXZ4bTNpS1h3K1BDT3VuWG9vdlBrMHY4QXMyYjdVa2VBZDVpMjdndUNEbkdPUlVscjhHZkhtb2FqZmFmYStDUEVkemYyQVJydTFoMG00ZVczRHJ1UXlLRXltNWVSbkdSeUtpVTZhM2t2dktqR28vc3Y3amcyanFObzZ1dEhUR2o5cWJnQ21VbWpwcXBoaFZzeDFHeVk1cmtyeC9kUzlHZGRDZjd5UHFqK2dxRC9BRk1mKzZQNVZKVWNIK3BqL3dCMGZ5cVN2eE0vWndvb29vQS9GNzQvTHUrUHZ4Ti83R1MrL3dEUnByZ2lsZWcvSG9aK1BueE4vd0N4bHZ2L0FFYWE0WGJYOUFaVEgvWUtQK0ZINEZtMHY5dnJlcktyUjB4bzZ0c2xNS1Y2YmllWXBGTm8vYW8yanIzUysvWlg4VFdQd0xpK0o3WFZvMWd5TE8ybkRkOW9TRm5LTEtjakcwa1pyem5SZmhoNHY4VGFmRmZhUjRVMXZWYkthWHlZN214MDZhYU41UDdnWlZJTGUzV3VDR0lvVlZLVUpxeWRuNjlqdmxoNjlOeGpLRHUxZGVqNm5ITkZVYlIrMWRscHZ3dzhYNjFIY3lhZDRWMXUvanRybjdITzFycDAwZ2luemp5bTJxZHI1SUcwODg5S2svNFZCNDVhMnVyZ2VDL0VKdDdWcFV1SmhwVSt5Rm8vOVlIT3pDbFA0Z2VuZWlVNlNkbkpmZU9NS2oxVVg5eHdwanBqUisxZFpxWHc2OFVhVDRldDlldnZEZXIyZWhYTzBRNm5jV01zZHRMdUJLN1pTdTFzZ0hHRHpnMVloK0Vmamk2MCtLL2g4RytJSnJHVzNONUhkUjZYTzBUd0RHWlF3VEJRWkh6ZE9SeldibFR0Zm1YM21rWTFMMjVYOXh3N1IxRzBWZHBwM3dyOFphMXA5cmZhZjRSMTIrc3JwSkpiZTV0dE5ta2ptU000a1pHVlNHQ25oaU9oNjF2ZU12MmR2SFhnZlFmQ3VyYWhvbHhMYStKSTFheFcxaGtrZmV3QlNKeHQrV1JzOEoxT0RqcFdFcXRLTWxGeVYzNW5SR25WY1hKUmRsNUhsTFIrMVJ0SFhjWDN3bDhiYWRyMWxvbDM0TzErMTFxK1ZudGRPbTB1ZExpNFVBa21PTXB1WUFLMmNBOUQ2VTVmZ3g0OW0xZ2FUSDRJOFJ2cXB0eGQvWVYwbTRNL2tsaW9sMmJOMnpjckRkakdRUjJyTnpwNzh5Kzh0UXFmeXY3amdtajlxamFPdFMvMDI1MHk4bnRMeTNsdGJxQnpITEJPaFI0MkJ3VlpUeUNEMk5WV2o5cWZMMUdwTkZGbzZhcVljR3JqUjB4a3h6aXVTdkg5M0wwWjFVSi92SStxUDZDNGY5VW4rNktmVElmOVVuKzZLZlg0b2Zzd1VVVVVBRkZGRkFCUlJSUUFWNXQrMHIveWJ4OFRQK3hiMUQvMG5ldlNhODIvYVYvNU40K0puL1l0NmgvNlR2VjAvalJFL2haK09zSy91WS85MGZ5cFNsU1FyL284Zis2UDVVNHJYOU14ajdxUDVwbEwzbVZ5dGRMOE01UEQxcjQvMEc0OFZ0SXZoMkM3U2E5V0dMekdralU3aW0zdUd4dFBzVFdBVjlxYVVxS2xQbmk0M3RjdW5VNUpLVnIyUHNyeHQrMTE4UGZpYnBmeEc4T2Fob04vcEZqclZ0L29lcUc1ZTVFdHhFQXNERzMyZ1FqQUdkcFBBNXIyWHd2cVUycFhrWGpDN2kxL3c5cGNmZ1JvMjBoNEZiUm9nRnlKWTdsSE1aSkdBcVlEWU9jZ2NWOGEvc3gvRFR3LzhXdGE4VWVHZFZ0Zk4xcWJSNXA5RW0rMFBHRXUwSHlnZ0hEQTV5YzV4dDk2K2hyUDlsTzQxVDRWL0RiU29kVjFZWFV0OWEvOEpOcGY5b1RtR08ybVV5N1RBWDJ4c0J0SEFITEU5cS9PY3d3dUJ3a3ZxMFpPRnQ3NjZPTzZ1Lzd0dld5Vmtmb3VYNHJIWXVQMW1VVk8rMXROVkxaMlg5Ni9wZHU3TzIrQTAwK3EyL3drMTZYL0FJU1BRdEwwbnd3OXRMYVJRbzJqM0NwR00zTWs2dnRSamduYTQzRSttMXMvTVhpRDlwTFQ3Ynd0OEdkTzBxZS91WXZDcXNkWjAwbG9vYmsrWWpCZXVKQmhUakl3SzZpVDluUHhKOFFOVThZV3Z3LzF1Znc5OE5yVFZtMGkwc3A3dTluaXU1Rk8yUmpIR0pQbDNna3V3QzhpbzRQMmFiT1A0QnpXR3RMby9obnhuYStML3dDeXA5WTFHUnRvVFl3V01GQXhZTXhRakE2SEp3QWF1alR3Tk9vNmxXZk0yMTdxV3NiODIrOTdjMnRtMm5ZaXRQRzFLYXAwb2NxU2Z2TjZTdHk3Yld2eTZYU1RWenFmaVIrMXA0ZDhhWGRuYTZFdHJyaVgydDJONE5IdTlGa2dtVm81VVlEN1ZKZUdJSDVTbVJFQVF4SEdkMWVvZkVqVW04Sy9ELzR6K0p0VmZ4QTF2ZXpXTTBXbCtJcmJ5WUlXM1JEeUxkOTdMS3BQZE1BZERrZ212aHJVdmc3ZitBL2pacC9nZnhUREd6LzJoYnd6Zlo1Q1VtaGtaY01qREJ3VlBzUlgxbnFuN00rbWE1OGNQR0doYTFybjlzZUNOSjBZM09sYURONG1lNHZiU2NRUUhlMEJrTWlybHBPU01ZWk94RlpZdkM0TEMreVVKKzdibTZPNlRqb25wcnQvbjBOY0ppc2JpZmF1Y1Bldnk5Vlp0UzFhMTgvOHVweTNqTDlyRHdKclduL0UyN3RmRVBpV1c1OFdhQUxTejBXNXRzV3VtM0FnOHZhakJ1N2NsZ0FPdldxODM3WWZoSzUrSXpUeTN1dHhhTGZlQzQ5QWJWYmREOXAwMjgvZWI1NGtZOGs3aytZSEpLcm5PT1BKL0RmN0lQaVB4TnBlaHpuWE5DMG5WZkVNRXQzb3VpWDF3NHVyNkpFTGhsd2hWY2pwdVlWRDRaL1pDOFNhenBta1hPcmEzb3ZoUzQxcTdrc3RLc2RZbWtTYTltUmlwVlFxTUZ5d3dOeEdjakhVVjJmVThxaW5GMU50UHd0cHByYmwzMTJkK3B5ZlhNMGswMVQzMS9HK3V1bCtiYlRkVzZIc1dnL3RmZUJ2RHZpZndoQ2IzV05YdHZEdmh5NzAxdkV0NWFZdXJ5NGxFUlg1TjdNcWdvZnZNZTNYcWVEL0FHZi9BTm9ydzk0VThCK0o5UDhBaUg0aHY5ZGkxaTRsdVp0Sld4bWt1NVpCQUkwWmI0VHBzTEFCZHJLd0FWY0ZjbXVxMHI5a081OFgvcys2SmEyMmxhZG8vakN6MXkrZzFuV2IyUW9sdkJDMGdiekhHZmxHMGRCWHlONG0wVzIwUFhMeXd0ZFR0dFpnZ2ZZdDlaaHhGTGpxVjNnSEdlNUhOUERZUEE0cFZLVkp1NmV1MTlHOWIyMHUyM3BieXNMRTR2SFlWMDZ0Vkt6V205dFV0TFgxc2tscmZ6dVlkd3FOTkkwU0dPSXNTaU0yNHFNOERQZW9HanE2MGRSdEg3VjlNNEh6YW1VbWlxR1pNSTMwcStZNmd1VXhDLzByanhFZjNNL1Iva2RtSG4rOWg2cjh6OStvUDlUSC91aitWU1ZIQi9xWS93RGRIOHFrcjhIUDNNS0tLS0FQeG0rT3k3dmoxOFRmK3hsdnYvUnByaHlsZDM4YzF6OGVQaWQvMk0xOS93Q2pUWEVsYS9vZkoxL3duMGY4S1A1N3pkLzhLRmIvQUJNcmxhczZUYjJkeHExbEZxRTcybGc4NkxjWEVhYjJqakxBT3dYdVFNbkhmRk1LMDBwWHFTamRXUExqS3p1ZmJ0MSsyRDhLOVM4UmFob0V2aG5Vb1BCdHpvUTBEKzAwdTNMZlpsVWxGRm50MnF3Wm1HL2R1L2xYb1B3STgveEJaZkIyOWdYeERwR21hTlkzbHZzc3JVUHBlb0lBQUo1cFZreENmbDNiWkYzRWtnWUlKcjgzeWxmYlB3NStCK2xlS2ZDdncwMWZUZFQxWFNQaC9mYVpkemVMYlZkV21TMzgyRlFHWmdId29jN3M0NkFDdmdjMHl6QzRHaWxHVGp6WDFmdmJSbDNlN1g2V3R1ZmU1WG1lS3h0WnVVVkxsdG92ZDNsSHN0ay8xdmZZNy80VDNrdmp5ejhFM2VuRHhGcG1uYWI0cDFLWHp0RGlTNDAvVlVrbWRnMXl5UG1NS1A0bkdPVHdkeWtlSWZ0QmZ0RGFhM2hmVy9DZWdhamVMcWtQanJVTDY3U0Fza0YxYUdTWUJUSXArZFdKSHk5Q0RYY2FsOEJiSDRJNkQ0MWE0bTFKTGZVdkZOcnBQaDdUeHFzOXRienhURmNpVlViOTROaGRTV0RIYkdUV0w0ay9aZDhKWGw1NDUxKzduc2ZERjFvdmlHeXNZOUZzN21TYlQwamNRRXhzV2hEczBna08wamFNbm5Bcmd3LzFKVi9iU2JjTCs3cDFiVDd0dldmeWE5RWQrSSt1dWg3R0tTbGIzdGVpWG9rdElmZDgyVC9GTDlzand2NHc4R2FsRHBCdDFtMVN4aHRadEMxRFJKWGJLa1pYN1Q5cldKUUR5R0VKeGp2WHRWOWV6M0VIajN4WnFLK0lkRHNaL0JTUm5TZFNnVmROdFdDTnpET3NqUnV4empDNElBeWZ2S0I4MmZ0Ti9zc3c2YjRnOGNlSXZCMTFvbHRvMmdSV3N0MTRmdFhjWEZxanhyODVCWGJ5ZHpZM1p4WEcvc3crRWJyNHYrSUxyVGZGdXM2ck44T1BEdW55YWhxVmliNlVRYkVVaUpGVU5oVHUrWVlIUkc5YXVXQndkVEJyRVllZG94MWFhdTllVjI2YTZLM2Z2WWlPTnhsUEdQRDRpRjVTMFZuWmFjeXYxMDFkKzNhNTdEby83WUhnR1RVTERYTHZWdkVXbXY4QThJdStoeStHSTdZUFl3empoWmxZTnlTT0I4dkE2NDZWekhobjlyN3czNGMxTDRPeTNCMVRVcmZRTkJtMHZWeGdob0xpUkVWWjR3eHhJeWdNTThIYXpZNjROM1JmMlUvQ1MvdFl4K0ZidXl1TDd3THEya1ByR2xvTGwwY29Zd1Fwa0J5ZHI3aDFQQlhQV3V0WDlrbjRiWEhqNzRiV04vNGR2UERWenJiYWtsOTRabDFkcmgvTGhqbE1Vd2tCRERKUkc0NCtmQjVGWnovc3FubzFKcHg1dW0zTExUdmRLL3p0ZG1rUDdVcWFweFRVdVhydnpSMTdhdTN5dlpITWFEKzFkNEM4STZoOE9OT2ZXTmQ4WFd1aDZyZmFuZWVJZFV0TnR3aXpSVHFrS0lYWmpneW9DYzQ0engwSEcvQlA5cGJTZEM4ZWVPZFg4WmVLYnk0MGZXN3BVK3czR216WGswMXFzc2tpTEhNczhadDl1L2dZZGZtUHkxeGVyL3N2YXJINEE4UStQeHFGbnAzaHEwdmIyQzB0NUk3aWFhVllaV2pBSmpqWlV5eTdBWkdVRTkrYThMYU92WnBaYmc2OEpxbkp1K2plbTkrYnRaTzc2YkhqMWN4eGxDVUhVU1Z0VXRkclc3M2FzdXU1YzhhM21tNnQ0dDFpOTBlMm1zOUt1THVTVzJndUhMeUpHV0pVTXh6azQ5NndtanE2MFZNYVAycjNGVDVVa2p4ZmFjemJLTFJWRExIaERXZzBkUVhNZUlYNDdWeVlpSDdxZm8veU9yRHovZXc5VitaKy9jUCtxVC9kRlBwa1ArcVQvZEZQcjhJUDNNS0tLS0FDaWlpZ0Fvb29vQUs4Mi9hVi93Q1RlUGlaL3dCaTNxSC9BS1R2WHBOZWJmdEsvd0RKdkh4TS93Q3hiMUQvQU5KM3E2ZnhvaWZ3cy9JQzNYL1I0djhBZEg4cWNVcDl1djhBbzBYKzRQNVU0clg5UVFqN2lQNWhsTDNtVnlsTksxWTIwMHJSeWdwSFFmRFQ0ZzZwOEsvRzJtZUo5SEVUMzFnNVpZN2dNWTVBUVFWWUtRU0NEMklyMVRTZjIwdkgyamVMUEdIaUNDUFRqZCtKWW80cG9uamtNZHFZMFpZMmhHL0lJREg3eGJQR2VsZUVsS1lWcnpxK1g0YkV5Y3ExTlNiVnZsZTl2dlBSb1poaWNQRlJvMUhGSjMwNzJ0ZjdqMWY0Vi90TWVLUGhSNFV1ZkRkcGJXZXA2UExjQzZTRzdrdUltaGt3UVNyd1N4dGc1NUJKSEZhR24vdFplSTdYUlpkS3Y5QTBIWGJPWFYvN1pkZFVpbm1ZekFZUWJ2TnpoY0xnNXp4Z2tna0h4WXJTRmF5bmx1Rm5LVTVVMWQ2djE3bTBNeXhVSXhoR283TFJlblk2N3hSOFhkZjhaZkZBZU85Vk1GeHJDM01WeXNZUXJDdmxrYkVDZzVDZ0tCMXo3NXJzTGY4QWFvOFQyM3hnOFMvRVpkTTBrNnhyMm5mMmJjV3hqbCt6cEg1Y0tia0htYmcySVY2c1JrbmowOGVLVTBwVGxnY1BKS0xnckpjdnkwMC9CQ2pqc1JGdVNtN3Q4M3oxMS9GbnRQaG45cmJ4VjRaMGZRN1k2UG9PcDZub052SmE2UHJWOWF1MTNZUnVtemFoRGhUZ0hqY3BxUHd6KzFwNHEwSFM5SnRkUzBqUS9GTTJqM1VsN3BWN3JWdThrMWpNN0ZpeUZYVUhESEkzQTR3TWRLOFhLMGhXdWVXV1lTVjcwMXIvQU1IN3QzOTdPaU9aNHVOclZIcC93UHYyWDNMc2U3K0dmMjJQaUg0VjB1MHM0QnB0ejVlb1hHbzNNbHhDN0c5TTdNMGtjb0RoU21XT05vQkdCelhpWGl6V0lmRTNpQzkxU0RTckxSSTdxVHpQc09uaHhCRVQxQ0IyWWdFNU9NNEdlTURpcVpTbUZLdWxncUZDVG5TZ2szdllpcmphOWVLaFZtMmx0Y3FOSFRHajlxdGxLYVU5cTNjVEJTS1RSVld2SThXOG4wclNhT3F1b0ppemwvM2E0OFZIOXpQMGY1SGJoWi92b2VxL00vZXFEL1V4L3dDNlA1VkpVY0grcGovM1IvS3BLL25zL29BS0tLS0FQeHQrTnd6OGQvaWQvd0JqTmY4QS9vMDF4bXl1MytOYTUrTzN4UDhBK3htdi93RDBhYTQwcFg5RzVOSC9BSVRxSCtGSDg2WnpML2hSci80bVZ5bE5LMVlLMDByWHI4cDVLa1Z5dGVwZUYvMmpQRlhoSDRQNnY4T2JKTFAreHRTWnkxdzZ2OW9pVjhiMVFoZ3VEZzlRZnZHdk15bE1LMXkxc05TeENVYXNicE5QNXJZNnFPSnFZZHVWS1ZtMWI1UGM5WjhkL3RRK01QaUZhZUJyZlZWczJqOEp5eHp3ZVdyZzNjcUJBc2srWE81c0lmdTdmdnQ2MU5yMzdWWGlqeEJENHBpbjB2U1kxOFE2cmFhdmNtT09YTWN0djVXeFV6SndwOGxjNXllVGdpdkh0dE5LMXhMTGNKRkpLbXROdnZ2K2VwMi8ybGlwTnQxSHJ2OEFkYjh0RDJEeEIrMVI0bjhSU2VQM3VOTDBtTStNN2FDMXZ2TGpsL2NyRW14VEZtUTRKSFhkdXJGK0dmN1EzaWo0UStEdGMwUHdzdHBwMXhxMHNja3VzQkdOM0hzSXdxRXRzQTZqbFQ5NDE1dVVwakpTL3MvQ3FEcGNpNVhiVHBwWkw3cklmOW9ZbHpWVG5mTXI2K3QyL3Z1ejMyeS9iWThjUTZ4NGIxaTkwN1J0VzF2UTdXZXpqMUs4aGw4MjRqbHh1ODNaSW9KR0JqQUhTdk0vaG44WGRXK0ZmeE5pOGNhWmFXZDFxY2JUc0lMdFhNUDcxV1Z1RllOd0hPT2E0d3JUZHZ0VVJ5L0RVNHloR21rcEt6OU5kUHhaY3N3eE01Um5LYmJpN3IxMDEvQkhzT2ovQUxVM2lIdzM0SjhRZUhkSDBYU05PR3VpNUY3ZlIvYUhsY3pzZk1iWTBwaTNGVHNEYk1oUVBUTmVKTkhWb3JUVEhWMDhMU291VHB4czVia1ZNVlZyS0txU3ZiWXFOSFViUisxWERIVENsYXVKbXBGSm9xclhzZUxlVDZWcHRIVlRVSTl0bkwvdTF4WXFQN21mby95TzNDei9BSDBQVmZtZnZYRC9BS3BQOTBVK21RLzZwUDhBZEZQcitleitnQW9vb29BS0tLS0FDaWlpZ0Fya2ZpNzRSdlBIM3dyOFgrR2RQa2dodjlZMG02c0lKTGxtV0paSkltUlM1VUVoY2tad0NmWTExMUZOT3p1aE5YVmo4MW8vK0NkSHhnampWQnJQZ2pDakgvSDdlZjhBeU5TLzhPNmZqQi8wR1BCSC9nYmVmL0kxZnBSUlgwLytzMmFyVDJ2NEkrWi8xYnl0Nit5L0ZuNXJmOE81L2kvL0FOQm53Ui80RzNuL0FNalVuL0R1YjR2L0FQUVo4RWYrQnQ1LzhqVitsVkZIK3MyYS93RFAzOEVIK3JlVi93RFByOFdmbXIvdzdsK0wvd0QwR2ZCUC9nYmVmL0kxSi93N2orTC9BUDBHZkJIL0FJRzNuL3lOWDZWMFV2OEFXWE5QK2Z2NElmOEFxM2xmL1ByOFdmbWwvd0FPNHZpOS93QkJud1QvQU9CdDUvOEFJMUgvQUE3aCtMMy9BRUd2QlA4QTRHM24vd0FqVitsdEZML1dUTlArZnY0SWYrcm1XZjhBUHI4V2Ztai9BTU8zL2k5LzBHdkJQL2diZWY4QXlOU2Y4TzN2aTkvMEd2QlAvZ2JlZi9JMWZwZlJSL3JKbWY4QXo5L0JCL3E1bG4vUHI4V2ZtZjhBOE8zZmk3LzBHdkJQL2diZWYvSTFKL3c3YitMdi9RYThFLzhBZ2JlZi9JMWZwalJTL3dCWTh6LzUrL2doL3dDcnVXZjgrdnhaK1p2L0FBN1orTHYvQUVHL0JQOEE0RzNuL3dBalVuL0R0bjR1L3dEUWI4RS8rQnQ1L3dESTFmcG5SUy8xaXpQL0FKKy9nZy8xZHkzL0FKOWZpejh5L3dEaDJ2OEFGMy9vTitDdi9BMjgvd0RrYWsvNGRxL0Z6L29OK0N2L0FBTnZQL2thdjAxb28vMWl6TC9uNytDSC9xOWx2L1ByOFdmbVQvdzdUK0xuL1FiOEZmOEFnYmQvL0kxUjNIL0JNMzR0WEVMeG5YUEJZRERHUmUzZi93QWpWK25WRlJMUDh4bW5HVlRSK1NMamtPWHdhbEducXZOalkxS1JxcDZnQVU2aWl2bmo2QUtLS0tBUGkzeC8vd0FFN2I3eHA0LzhUK0pMZjRqeDZkSHJXcFQ2ajlrYlF2Tk1Ka2N0dDMvYUJ1eDB6Z2ZTc0gvaDJScW4vUlZJZi9DYy93RHVxdnZDaXZicDUzbU5HQ3AwNnpVVnNqeGFtUzVkV202bFNpbTN1ejRPL3dDSFkrcC85RlVoL3dEQ2MvOEF1cWsvNGRpNm4vMFZTSC93blA4QTdxcjd5b3JUKzM4MC93Q2Y4akwrd2NzLzU4UlBnei9oMkxxZi9SVklmL0NkL3dEdXFqL2gySnFYL1JVNGYvQ2Mvd0R1cXZ2T2lqKzNzei81L3dBaC93Qmc1Wi96NGlmQmYvRHNMVXYraXB3LytFNy9BUGRWSi93N0IxSC9BS0tuRC80VHYvM1ZYM3JSUy90N00vOEFuL0lQN0N5ei9ueEUrQ3YrSFlHby93RFJVNGYvQUFuZi91cWsvd0NIWCtvZjlGVGkvd0RDZC84QXVxdnZhaWorM2N6L0FPZjdIL1lXVy84QVBoSHdSL3c2OTFEL0FLS25GLzRUdi8zVlNmOEFEcnZVUCtpcHhmOEFoTy8vQUhWWDN4UlMvdDNNditmN0gvWWVXLzhBUGhId1AvdzY3djhBL29xY1gvaE8vd0QzVlNmOE91Yi9BUDZLbkYvNFR2OEE5MVY5ODBVZjI1bVgvUDhBWWYySGx2OEF6NVI4RGY4QURybSsvd0NpcHhmK0U3LzkxVW4vQUE2M3Z2OEFvcWNYL2hPLy9kVmZmVkZMKzNNeS93Q2Z6RCt4TXUvNThvK0JQK0hXdDcvMFZPUC9BTUozL3dDNnFqbS80SlgzYzBiSTN4VGoyc01IL2ludi91cXZ2K2lwbG5XWVNUVHJPekxqazJYeGFrcUt1aHFMdFZWNjRHS2RSUlhpbnNoUlJSUUIvOWs9IiBoZWlnaHQ9IjM5MyIgd2lkdGg9IjQ5MyIvPjxjbGlwUGF0aCBpZD0iY2xpcDIiPjxyZWN0IGhlaWdodD0iMjk5OTIxNiIgd2lkdGg9IjM3NjIzNzUiIHk9IjAiIHg9IjAiLz48L2NsaXBQYXRoPjwvZGVmcz48Zz48ZyB0cmFuc2Zvcm09InNjYWxlKDAuMDAwMTA0OTg3IDAuMDAwMTA0OTg3KSIgY2xpcC1wYXRoPSJ1cmwoI2NsaXAwKSI+PGcgdHJhbnNmb3JtPSJzY2FsZSgxIDEuMDAwMzkpIiBjbGlwLXBhdGg9InVybCgjY2xpcDIpIj48dXNlIHRyYW5zZm9ybT0ic2NhbGUoNzYzMS41OSA3NjMxLjU5KSIgeGxpbms6aHJlZj0iI2ltZzEiIGhlaWdodD0iMTAwJSIgd2lkdGg9IjEwMCUiLz48L2c+PC9nPjwvZz48L3N2Zz4=;" vertex="1" parent="1">
          <mxGeometry x="-240" y="40" width="395" height="315" as="geometry" />
        </mxCell>
        <mxCell id="1Q1gGnk6jao1O6jYRN7I-25" value="" style="group;fontColor=#004C99;" vertex="1" connectable="0" parent="1">
          <mxGeometry x="190" y="36" width="520" height="314" as="geometry" />
        </mxCell>
        <mxCell id="1Q1gGnk6jao1O6jYRN7I-21" value="" style="group;dashed=1;fontColor=#004C99;" vertex="1" connectable="0" parent="1Q1gGnk6jao1O6jYRN7I-25">
          <mxGeometry y="14" width="520" height="300" as="geometry" />
        </mxCell>
        <mxCell id="1Q1gGnk6jao1O6jYRN7I-2" value="&lt;b&gt;&lt;font style=&quot;&quot;&gt;Americana&lt;/font&gt;&lt;/b&gt;&lt;div&gt;&lt;b&gt;&lt;font style=&quot;&quot;&gt;Rider Tracking&lt;/font&gt;&lt;/b&gt;&lt;/div&gt;" style="rounded=0;whiteSpace=wrap;html=1;fillColor=#b1ddf0;strokeColor=#10739e;fontColor=#004C99;" vertex="1" parent="1Q1gGnk6jao1O6jYRN7I-21">
          <mxGeometry x="190" width="120" height="40" as="geometry" />
        </mxCell>
        <mxCell id="1Q1gGnk6jao1O6jYRN7I-3" value="&lt;font&gt;&lt;b&gt;Last-Mile Real-Time&lt;/b&gt;&lt;/font&gt;&lt;div&gt;&lt;font&gt;&lt;b&gt;Streaming Integrations&lt;/b&gt;&lt;/font&gt;&lt;/div&gt;" style="rounded=0;whiteSpace=wrap;html=1;fillColor=#b1ddf0;strokeColor=#10739e;fontColor=#004C99;" vertex="1" parent="1Q1gGnk6jao1O6jYRN7I-21">
          <mxGeometry x="170" y="80" width="160" height="40" as="geometry" />
        </mxCell>
        <mxCell id="1Q1gGnk6jao1O6jYRN7I-4" value="&lt;font&gt;&lt;b&gt;Kafka Stream&lt;/b&gt;&lt;/font&gt;&lt;div&gt;&lt;font&gt;&lt;b&gt;Integration&lt;br&gt;&lt;/b&gt;&lt;/font&gt;&lt;/div&gt;" style="rounded=0;whiteSpace=wrap;html=1;fillColor=#b1ddf0;strokeColor=#10739e;fontColor=#004C99;" vertex="1" parent="1Q1gGnk6jao1O6jYRN7I-21">
          <mxGeometry x="110" y="160" width="100" height="40" as="geometry" />
        </mxCell>
        <mxCell id="1Q1gGnk6jao1O6jYRN7I-5" value="&lt;div&gt;&lt;b style=&quot;background-color: transparent;&quot;&gt;Web Hook&lt;/b&gt;&lt;/div&gt;&lt;div&gt;&lt;b style=&quot;background-color: transparent;&quot;&gt;Integration&lt;/b&gt;&lt;/div&gt;" style="rounded=0;whiteSpace=wrap;html=1;fillColor=#b1ddf0;strokeColor=#10739e;fontColor=#004C99;" vertex="1" parent="1Q1gGnk6jao1O6jYRN7I-21">
          <mxGeometry x="290" y="160" width="100" height="40" as="geometry" />
        </mxCell>
        <mxCell id="1Q1gGnk6jao1O6jYRN7I-7" value="&lt;b&gt;Google FireStore&lt;/b&gt;&lt;div&gt;&lt;b&gt;Stream Integration&lt;/b&gt;&lt;/div&gt;" style="rounded=0;whiteSpace=wrap;html=1;fillColor=#b1ddf0;strokeColor=#10739e;fontColor=#004C99;" vertex="1" parent="1Q1gGnk6jao1O6jYRN7I-21">
          <mxGeometry x="390" y="240" width="110" height="40" as="geometry" />
        </mxCell>
        <mxCell id="1Q1gGnk6jao1O6jYRN7I-8" value="&lt;b&gt;Aggregator&lt;/b&gt;&lt;div&gt;&lt;b&gt;API Integration&lt;/b&gt;&lt;/div&gt;" style="rounded=0;whiteSpace=wrap;html=1;fillColor=#b1ddf0;strokeColor=#10739e;fontColor=#004C99;" vertex="1" parent="1Q1gGnk6jao1O6jYRN7I-21">
          <mxGeometry y="240" width="110" height="40" as="geometry" />
        </mxCell>
        <mxCell id="1Q1gGnk6jao1O6jYRN7I-13" value="" style="endArrow=classic;html=1;rounded=0;fontColor=#004C99;" edge="1" parent="1Q1gGnk6jao1O6jYRN7I-21" target="1Q1gGnk6jao1O6jYRN7I-3">
          <mxGeometry width="50" height="50" relative="1" as="geometry">
            <mxPoint x="250" y="40" as="sourcePoint" />
            <mxPoint x="300" y="-10" as="targetPoint" />
          </mxGeometry>
        </mxCell>
        <mxCell id="1Q1gGnk6jao1O6jYRN7I-14" value="" style="endArrow=none;html=1;rounded=0;fontColor=#004C99;" edge="1" parent="1Q1gGnk6jao1O6jYRN7I-21">
          <mxGeometry width="50" height="50" relative="1" as="geometry">
            <mxPoint x="160" y="140" as="sourcePoint" />
            <mxPoint x="350" y="140" as="targetPoint" />
          </mxGeometry>
        </mxCell>
        <mxCell id="1Q1gGnk6jao1O6jYRN7I-15" value="" style="endArrow=none;html=1;rounded=0;fontColor=#004C99;" edge="1" parent="1Q1gGnk6jao1O6jYRN7I-21">
          <mxGeometry width="50" height="50" relative="1" as="geometry">
            <mxPoint x="250" y="220" as="sourcePoint" />
            <mxPoint x="250" y="120" as="targetPoint" />
          </mxGeometry>
        </mxCell>
        <mxCell id="1Q1gGnk6jao1O6jYRN7I-16" value="" style="endArrow=none;html=1;rounded=0;fontColor=#004C99;" edge="1" parent="1Q1gGnk6jao1O6jYRN7I-21">
          <mxGeometry width="50" height="50" relative="1" as="geometry">
            <mxPoint x="50" y="220" as="sourcePoint" />
            <mxPoint x="450" y="220" as="targetPoint" />
          </mxGeometry>
        </mxCell>
        <mxCell id="1Q1gGnk6jao1O6jYRN7I-17" value="" style="endArrow=classic;html=1;rounded=0;entryX=0.5;entryY=0;entryDx=0;entryDy=0;fontColor=#004C99;" edge="1" parent="1Q1gGnk6jao1O6jYRN7I-21" target="1Q1gGnk6jao1O6jYRN7I-4">
          <mxGeometry width="50" height="50" relative="1" as="geometry">
            <mxPoint x="160" y="140" as="sourcePoint" />
            <mxPoint x="210" y="90" as="targetPoint" />
          </mxGeometry>
        </mxCell>
        <mxCell id="1Q1gGnk6jao1O6jYRN7I-18" value="" style="endArrow=classic;html=1;rounded=0;entryX=0.5;entryY=0;entryDx=0;entryDy=0;fontColor=#004C99;" edge="1" parent="1Q1gGnk6jao1O6jYRN7I-21">
          <mxGeometry width="50" height="50" relative="1" as="geometry">
            <mxPoint x="350" y="140" as="sourcePoint" />
            <mxPoint x="350" y="160" as="targetPoint" />
          </mxGeometry>
        </mxCell>
        <mxCell id="1Q1gGnk6jao1O6jYRN7I-19" value="" style="endArrow=classic;html=1;rounded=0;entryX=0.5;entryY=0;entryDx=0;entryDy=0;fontColor=#004C99;" edge="1" parent="1Q1gGnk6jao1O6jYRN7I-21">
          <mxGeometry width="50" height="50" relative="1" as="geometry">
            <mxPoint x="450" y="220" as="sourcePoint" />
            <mxPoint x="450" y="240" as="targetPoint" />
          </mxGeometry>
        </mxCell>
        <mxCell id="1Q1gGnk6jao1O6jYRN7I-20" value="" style="endArrow=classic;html=1;rounded=0;entryX=0.5;entryY=0;entryDx=0;entryDy=0;fontColor=#004C99;" edge="1" parent="1Q1gGnk6jao1O6jYRN7I-21">
          <mxGeometry width="50" height="50" relative="1" as="geometry">
            <mxPoint x="50" y="220" as="sourcePoint" />
            <mxPoint x="50" y="240" as="targetPoint" />
          </mxGeometry>
        </mxCell>
        <mxCell id="1Q1gGnk6jao1O6jYRN7I-23" value="&lt;font style=&quot;font-size: 9px;&quot;&gt;Americana Last-Mile Eco-System&lt;/font&gt;" style="text;html=1;align=center;verticalAlign=middle;whiteSpace=wrap;rounded=0;fontStyle=5;fontColor=#004C99;" vertex="1" parent="1Q1gGnk6jao1O6jYRN7I-25">
          <mxGeometry x="370" width="150" height="30" as="geometry" />
        </mxCell>
      </root>
    </mxGraphModel>
  </diagram>
</mxfile>
